<?xml version="1.0" standalone="no"?>
<!DOCTYPE svg PUBLIC "-//W3C//DTD SVG 20010904//EN"
 "http://www.w3.org/TR/2001/REC-SVG-20010904/DTD/svg10.dtd">
<svg version="1.0" xmlns="http://www.w3.org/2000/svg"
 width="225.000000pt" height="225.000000pt" viewBox="0 0 225.000000 225.000000"
 preserveAspectRatio="xMidYMid meet">

<g transform="translate(0.000000,225.000000) scale(0.100000,-0.100000)"
fill="#000000" stroke="none">
<path d="M1040 2243 c-512 -45 -921 -412 -1016 -912 -22 -113 -22 -300 0 -414
87 -453 440 -806 893 -893 114 -22 301 -22 414 0 455 87 808 439 895 893 22
115 22 301 0 416 -87 452 -446 812 -890 892 -91 16 -228 25 -296 18z m430
-423 c12 -12 20 -33 20 -55 0 -22 -8 -43 -20 -55 -19 -19 -33 -20 -339 -20
-176 0 -327 3 -336 6 -26 10 -45 63 -34 94 19 50 21 50 366 50 310 0 324 -1
343 -20z m200 -250 c17 -17 19 -29 15 -73 -3 -28 -15 -196 -26 -372 -11 -176
-24 -383 -29 -460 -5 -77 -10 -159 -10 -182 0 -77 25 -73 -495 -73 -520 0
-495 -4 -495 73 0 23 -5 105 -10 182 -5 77 -18 284 -29 460 -11 176 -23 344
-26 372 -4 44 -2 56 15 73 20 20 33 20 545 20 512 0 525 0 545 -20z"/>
<path d="M802 1378 c-17 -17 -17 -749 0 -766 17 -17 44 -15 62 4 14 13 16 62
16 383 0 386 -1 391 -45 391 -12 0 -26 -5 -33 -12z"/>
<path d="M1092 1378 c-17 -17 -17 -749 0 -766 15 -15 51 -15 66 0 17 17 17
749 0 766 -7 7 -21 12 -33 12 -12 0 -26 -5 -33 -12z"/>
<path d="M1382 1378 c-9 -9 -12 -107 -12 -379 0 -321 2 -370 16 -383 18 -19
45 -21 62 -4 17 17 17 749 0 766 -7 7 -21 12 -33 12 -12 0 -26 -5 -33 -12z"/>
</g>
</svg>
